<svg width="330" height="86" viewBox="0 0 330 86" fill="none" xmlns="http://www.w3.org/2000/svg">
<path d="M40 35H16C14.4087 35 12.8826 34.3679 11.7574 33.2426C10.6321 32.1174 10 30.5913 10 29C10 27.4087 10.6321 25.8826 11.7574 24.7574C12.8826 23.6321 14.4087 23 16 23H40C40.5304 23 41.0391 23.2107 41.4142 23.5858C41.7893 23.9609 42 24.4696 42 25V33C42 33.5304 41.7893 34.0391 41.4142 34.4142C41.0391 34.7893 40.5304 35 40 35ZM16 27C15.4696 27 14.9609 27.2107 14.5858 27.5858C14.2107 27.9609 14 28.4696 14 29C14 29.5304 14.2107 30.0391 14.5858 30.4142C14.9609 30.7893 15.4696 31 16 31H38V27H16Z" fill="#BA7943"/>
<path d="M38 63H10C8.4087 63 6.88258 62.3679 5.75736 61.2426C4.63214 60.1174 4 58.5913 4 57C4 55.4087 4.63214 53.8826 5.75736 52.7574C6.88258 51.6321 8.4087 51 10 51H38C38.5304 51 39.0391 51.2107 39.4142 51.5858C39.7893 51.9609 40 52.4696 40 53V61C40 61.5304 39.7893 62.0391 39.4142 62.4142C39.0391 62.7893 38.5304 63 38 63ZM10 55C9.46957 55 8.96086 55.2107 8.58579 55.5858C8.21071 55.9609 8 56.4696 8 57C8 57.5304 8.21071 58.0391 8.58579 58.4142C8.96086 58.7893 9.46957 59 10 59H36V55H10Z" fill="#BA7943"/>
<path d="M34 43H10C8.4087 43 6.88258 42.3679 5.75736 41.2426C4.63214 40.1174 4 38.5913 4 37C4 35.4087 4.63214 33.8826 5.75736 32.7574C6.88258 31.6321 8.4087 31 10 31H34C34.5304 31 35.0391 31.2107 35.4142 31.5858C35.7893 31.9609 36 32.4696 36 33C36 33.5304 35.7893 34.0391 35.4142 34.4142C35.0391 34.7893 34.5304 35 34 35H10C9.46957 35 8.96086 35.2107 8.58579 35.5858C8.21071 35.9609 8 36.4696 8 37C8 37.5304 8.21071 38.0391 8.58579 38.4142C8.96086 38.7893 9.46957 39 10 39H34C34.5304 39 35.0391 39.2107 35.4142 39.5858C35.7893 39.9609 36 40.4696 36 41C36 41.5304 35.7893 42.0391 35.4142 42.4142C35.0391 42.7893 34.5304 43 34 43Z" fill="#BA7943"/>
<path d="M42 55H20C17.8783 55 15.8434 54.1571 14.3431 52.6569C12.8429 51.1566 12 49.1217 12 47C12 44.8783 12.8429 42.8434 14.3431 41.3431C15.8434 39.8429 17.8783 39 20 39H42C42.5304 39 43.0391 39.2107 43.4142 39.5858C43.7893 39.9609 44 40.4696 44 41C44 41.5304 43.7893 42.0391 43.4142 42.4142C43.0391 42.7893 42.5304 43 42 43H20C18.9391 43 17.9217 43.4214 17.1716 44.1716C16.4214 44.9217 16 45.9391 16 47C16 48.0609 16.4214 49.0783 17.1716 49.8284C17.9217 50.5786 18.9391 51 20 51H40V47C40 46.4696 40.2107 45.9609 40.5858 45.5858C40.9609 45.2107 41.4696 45 42 45C42.5304 45 43.0391 45.2107 43.4142 45.5858C43.7893 45.9609 44 46.4696 44 47V53C44 53.5304 43.7893 54.0391 43.4142 54.4142C43.0391 54.7893 42.5304 55 42 55Z" fill="#BA7943"/>
<path d="M57.36 21.976H65.232C68.432 21.976 70.704 22.392 72.048 23.224C73.424 24.056 74.304 25.56 74.688 27.736C75.104 29.88 75.312 33.464 75.312 38.488C75.312 43.512 75.104 47.112 74.688 49.288C74.304 51.432 73.424 52.92 72.048 53.752C70.704 54.584 68.432 55 65.232 55H57.36V21.976ZM65.088 51.832C67.296 51.832 68.8 51.608 69.6 51.16C70.432 50.68 70.992 49.576 71.28 47.848C71.568 46.12 71.712 43 71.712 38.488C71.712 34.008 71.568 30.904 71.28 29.176C70.992 27.416 70.432 26.312 69.6 25.864C68.768 25.384 67.264 25.144 65.088 25.144H60.912V51.832H65.088ZM96.2434 55V39.976H84.7714V55H81.2194V21.976H84.7714V36.712H96.2434V21.976H99.7954V55H96.2434ZM106.676 55V21.976H110.276V55H106.676ZM121.831 55V25.24H114.487V21.976H132.775V25.24H125.431V55H121.831ZM142.139 55V42.28L133.643 21.976H137.435L143.867 38.008H144.155L150.587 21.976H154.235L145.691 42.28V55H142.139ZM175.865 21.976V40.648C175.865 44.936 175.673 48.056 175.289 50.008C174.905 51.96 174.073 53.352 172.793 54.184C171.545 54.984 169.497 55.384 166.648 55.384C163.801 55.384 161.737 54.984 160.457 54.184C159.177 53.352 158.345 51.96 157.961 50.008C157.577 48.024 157.385 44.904 157.385 40.648V21.976H160.985V42.28C160.985 45.32 161.097 47.48 161.321 48.76C161.545 50.04 162.025 50.936 162.761 51.448C163.529 51.96 164.825 52.216 166.648 52.216C168.473 52.216 169.753 51.96 170.489 51.448C171.257 50.936 171.737 50.04 171.929 48.76C172.153 47.48 172.265 45.32 172.265 42.28V21.976H175.865ZM187.081 55V25.24H179.737V21.976H198.025V25.24H190.681V55H187.081ZM206.909 55V25.24H199.565V21.976H217.853V25.24H210.509V55H206.909ZM237.009 55V39.976H225.537V55H221.985V21.976H225.537V36.712H237.009V21.976H240.561V55H237.009ZM263.09 55L260.786 45.832H250.658L248.402 55H244.802L253.442 21.976H258.146L266.786 55H263.09ZM255.842 26.344H255.602L251.522 42.664H259.922L255.842 26.344ZM286.04 55L274.664 29.608H274.472V55H271.016V21.976H274.808L285.992 46.936H286.184V21.976H289.64V55H286.04ZM312.168 55L309.864 45.832H299.736L297.48 55H293.88L302.52 21.976H307.224L315.864 55H312.168ZM304.92 26.344H304.68L300.6 42.664H309L304.92 26.344Z" fill="#BA7943"/>
</svg>
